<svg id="Charts_2" data-name="Charts 2" xmlns="http://www.w3.org/2000/svg" width="40.5" height="40.5" viewBox="0 0 40.5 40.5">
  <rect id="_64pt_Bounding_Box" data-name="64pt Bounding Box" width="40.5" height="40.5" fill="none"/>
  <g id="a-link" transform="translate(3.386 0.147)">
    <path id="a" d="M33.363,7.788,29.864.707A1.278,1.278,0,0,0,28.156.129l-7.081,3.5A1.275,1.275,0,1,0,22.2,5.914l4.353-2.149C22.012,15.475,7.217,22.555.991,24.015a1.311,1.311,0,0,0-.964,1.543,1.292,1.292,0,0,0,1.24.992,1.13,1.13,0,0,0,.3-.028C8.512,24.9,24.051,17.458,28.955,4.62l2.121,4.326a1.285,1.285,0,0,0,1.157.716,1.254,1.254,0,0,0,.551-.138A1.318,1.318,0,0,0,33.363,7.788Z" transform="translate(0)" fill="#ffad0a"/>
  </g>
  <g id="a-link-2" data-name="a-link" transform="translate(3.386 0.147)">
    <path id="a-2" data-name="a" d="M33.363,7.788,29.864.707A1.278,1.278,0,0,0,28.156.129l-7.081,3.5A1.275,1.275,0,1,0,22.2,5.914l4.353-2.149C22.012,15.475,7.217,22.555.991,24.015a1.311,1.311,0,0,0-.964,1.543,1.292,1.292,0,0,0,1.24.992,1.13,1.13,0,0,0,.3-.028C8.512,24.9,24.051,17.458,28.955,4.62l2.121,4.326a1.285,1.285,0,0,0,1.157.716,1.254,1.254,0,0,0,.551-.138A1.318,1.318,0,0,0,33.363,7.788Z" transform="translate(0)" fill="#ffad0a"/>
  </g>
  <path id="Path" d="M6.364,7.88H.937A.929.929,0,0,1,0,6.943V.937A.929.929,0,0,1,.937,0H6.364A.929.929,0,0,1,7.3.937V6.943A.965.965,0,0,1,6.364,7.88Z" transform="translate(3.55 32.428)" fill="#0050d8"/>
  <path id="Path-2" data-name="Path" d="M6.364,14.878H.937A.929.929,0,0,1,0,13.941v-13A.929.929,0,0,1,.937,0H6.364A.929.929,0,0,1,7.3.937v13A.965.965,0,0,1,6.364,14.878Z" transform="translate(15.562 25.43)" fill="#0050d8"/>
  <path id="Path-3" data-name="Path" d="M6.364,24.465H.937A.929.929,0,0,1,0,23.529V.937A.929.929,0,0,1,.937,0H6.364A.929.929,0,0,1,7.3.937V23.529A.965.965,0,0,1,6.364,24.465Z" transform="translate(27.574 15.842)" fill="#0050d8"/>
</svg>
