<svg id="content-management-svgrepo-com_1_" data-name="content-management-svgrepo-com (1)" xmlns="http://www.w3.org/2000/svg" width="36.5" height="36.5" viewBox="0 0 36.5 36.5">
  <g id="Group_55834" data-name="Group 55834">
    <g id="Group_55833" data-name="Group 55833">
      <path id="Path_87164" data-name="Path 87164" d="M32.542,0H3.956A3.97,3.97,0,0,0,0,3.958V32.546A3.969,3.969,0,0,0,3.956,36.5H32.542A3.969,3.969,0,0,0,36.5,32.546V3.958A3.97,3.97,0,0,0,32.542,0Zm.963,33.105H3V8.206H33.505Z" fill="#0050d8"/>
      <circle id="Ellipse_2" data-name="Ellipse 2" cx="2.969" cy="2.969" r="2.969" transform="translate(7.084 10.651)" fill="#0050d8" stroke="#fff" stroke-width="1"/>
      <rect id="Rectangle_19052" data-name="Rectangle 19052" width="13.03" height="2.473" transform="translate(15.493 12.384)" fill="#0050d8"/>
      <circle id="Ellipse_3" data-name="Ellipse 3" cx="2.969" cy="2.969" r="2.969" transform="translate(7.084 17.906)" fill="#0050d8" stroke="#fff" stroke-width="1"/>
      <rect id="Rectangle_19053" data-name="Rectangle 19053" width="13.03" height="2.472" transform="translate(15.493 19.639)" fill="#0050d8"/>
      <circle id="Ellipse_4" data-name="Ellipse 4" cx="2.969" cy="2.969" r="2.969" transform="translate(7.084 25.162)" fill="#ffad0a" stroke="#fff" stroke-width="1"/>
      <rect id="Rectangle_19054" data-name="Rectangle 19054" width="13.03" height="2.472" transform="translate(15.493 26.894)" fill="#ffad0a"/>
    </g>
  </g>
</svg>
