<?xml version="1.0" encoding="utf-8"?>
<!-- Generator: Adobe Illustrator 27.0.1, SVG Export Plug-In . SVG Version: 6.00 Build 0)  -->
<svg version="1.1" id="Layer_1" xmlns="http://www.w3.org/2000/svg" xmlns:xlink="http://www.w3.org/1999/xlink" x="0px" y="0px"
	 viewBox="0 0 150 116.7" style="enable-background:new 0 0 150 116.7;" xml:space="preserve">
<style type="text/css">
	.st0{fill:#FFAD0A;}
</style>
<g>
	<g>
		<path class="st0" d="M8.55,52.49c-0.02-0.45,0.24-0.77,0.49-1.11c2.51-3.56,5.27-6.91,8.21-10.13c0.12-0.13,0.21-0.3,0.32-0.46
			c0.51-0.26,0.84-0.73,1.23-1.13c2.8-2.88,5.79-5.53,8.95-7.99c9.15-7.1,19.31-12.23,30.43-15.48c6.81-1.99,13.72-3.4,20.85-3.47
			c0.5,0,1.03,0.06,1.51-0.19c2.89,0,5.79,0,8.68,0c1.09,0.35,2.22,0.2,3.33,0.26c7.28,0.42,13.99,2.59,20.08,6.57
			c3.43,2.24,6.09,5.18,7.74,8.98c0.47,1.08,0.8,2.18,0.79,3.37c0,0.51-0.03,1.03,0.02,1.54c0.47,5.03-1.74,9.1-4.86,12.68
			c-5.8,6.64-12.99,11.42-21.03,14.96c-6.26,2.76-12.8,4.55-19.56,5.54c-0.97,0.14-1.94,0.26-2.91,0.31
			c-3.58,0.16-7.17,0.47-10.76,0.25c-1.86-0.11-3.73-0.07-5.56-0.49c-0.17-0.04-0.38-0.02-0.46-0.33c0.86-0.54,1.89-0.57,2.85-0.76
			c5.3-1.02,10.62-1.95,15.84-3.38c5.38-1.47,10.58-3.35,15.22-6.52c3.73-2.55,6.95-5.63,9.35-9.5c1.26-2.04,2.18-4.19,2.32-6.65
			c0.16-2.9-0.92-5.27-2.82-7.35c-2.25-2.46-5.04-4.13-8.07-5.41c-4.42-1.87-9.05-2.83-13.86-2.92c-3.36-0.06-6.72-0.08-10.07,0.09
			c-6.63,0.33-13.13,1.48-19.49,3.41c-9.98,3.02-19.01,7.84-27.14,14.35c-0.86,0.69-1.88,1.23-2.43,2.27
			c-0.52,0.13-0.91,0.49-1.27,0.83c-1.98,1.89-4.01,3.74-5.76,5.86c-0.62,0.75-1.25,1.5-2.06,2.07L8.55,52.49z"/>
		<path class="st0" d="M141.45,41.92c-0.13,0.86-2.52,6.44-4.88,9.6c-3.88,5.21-8.61,9.68-13.61,13.85
			c-7.63,6.35-16.04,11.36-25.39,14.74c-6.29,2.28-12.77,3.74-19.44,4.38c-4.65,0.45-9.29,0.79-13.93-0.06
			c-3.28-0.6-6.46-1.49-9.35-3.17c-6.24-3.6-8.33-8.7-7.12-15.44c1.41-7.89,5.59-14.23,11.68-19.34c4.74-3.97,10.22-6.64,15.98-8.76
			c5.17-1.9,10.52-3.19,15.87-4.45c0.4-0.09,0.84-0.08,1.15-0.52c-2.17-0.5-4.35-0.72-6.52-0.84c-7.98-0.44-15.84,0.26-23.47,2.77
			C50.38,38.63,40.76,45.8,33.91,56.49c-4.47,6.98-6.41,14.64-5.16,22.94c0.98,6.51,3.96,12.01,8.89,16.36
			c6.01,5.31,13.19,7.73,21.14,7.97c7.03,0.21,13.95-0.69,20.79-2.3c16.23-3.83,30.05-11.93,41.77-23.68
			c5.99-6,11.41-12.51,15.53-19.92C139.18,53.7,141.47,45.44,141.45,41.92z"/>
	</g>
</g>
</svg>
