<svg xmlns="http://www.w3.org/2000/svg" width="25.367" height="25.367" viewBox="0 0 25.367 25.367">
  <g id="Group_56065" data-name="Group 56065" transform="translate(3368 -2850)">
    <g id="linkedin-icon-2" transform="translate(-3368 2850)">
      <path id="Path_87156" data-name="Path 87156" d="M0,1.817A1.847,1.847,0,0,1,1.875,0H23.492a1.847,1.847,0,0,1,1.875,1.817V23.55a1.847,1.847,0,0,1-1.875,1.817H1.875A1.847,1.847,0,0,1,0,23.551V1.817Z" fill="#069"/>
      <path id="Path_87157" data-name="Path 87157" d="M41.25,60.354V48.933h-3.8v11.42h3.8Zm-1.9-12.979a2.124,2.124,0,1,0-.025,0h.025Zm4,12.979h3.8V53.977a2.6,2.6,0,0,1,.125-.926,2.077,2.077,0,0,1,1.948-1.388c1.373,0,1.923,1.047,1.923,2.583v6.109h3.8V53.806c0-3.508-1.872-5.14-4.37-5.14a3.782,3.782,0,0,0-3.446,1.924h.025V48.934h-3.8c.05,1.071,0,11.42,0,11.42Z" transform="translate(-33.541 -39.125)" fill="#fff"/>
    </g>
  </g>
</svg>
