<svg xmlns="http://www.w3.org/2000/svg" width="17.463" height="11.647" viewBox="0 0 17.463 11.647">
  <path id="Icon_ionic-ios-arrow-round-down" data-name="Icon ionic-ios-arrow-round-down" d="M11.424,11.137a.793.793,0,0,0-1.116-.006L6.614,14.812V.782a.789.789,0,0,0-1.577,0v14.03L1.343,11.124a.8.8,0,0,0-1.116.006.785.785,0,0,0,.006,1.11l5.035,5h0a.886.886,0,0,0,.249.164.753.753,0,0,0,.3.061.791.791,0,0,0,.552-.224l5.035-5A.773.773,0,0,0,11.424,11.137Z" transform="translate(17.463) rotate(90)" fill="#1e52d0"/>
</svg>
