<svg xmlns="http://www.w3.org/2000/svg" width="17.463" height="11.647" viewBox="0 0 17.463 11.647">
  <path id="Icon_ionic-ios-arrow-round-down" data-name="Icon ionic-ios-arrow-round-down" d="M11.424,6.327a.793.793,0,0,1-1.116.006L6.614,2.651v14.03a.789.789,0,0,1-1.577,0V2.651L1.343,6.339A.8.8,0,0,1,.227,6.333a.785.785,0,0,1,.006-1.11l5.035-5h0A.886.886,0,0,1,5.516.061.753.753,0,0,1,5.819,0a.791.791,0,0,1,.552.224l5.035,5A.773.773,0,0,1,11.424,6.327Z" transform="translate(17.463) rotate(90)" fill="#1e52d0"/>
</svg>
