<?xml version="1.0" encoding="utf-8"?>
<!-- Generator: Adobe Illustrator 27.0.1, SVG Export Plug-In . SVG Version: 6.00 Build 0)  -->
<svg version="1.1" id="Layer_1" xmlns="http://www.w3.org/2000/svg" xmlns:xlink="http://www.w3.org/1999/xlink" x="0px" y="0px"
	 viewBox="0 0 1878.33 337.8" style="enable-background:new 0 0 1878.33 337.8;" xml:space="preserve">
<style type="text/css">
	.st0{fill:#4381EB;}
	.st1{fill:#959698;}
	.st2{fill:#FFAD0A;}
</style>
<g>
	<path class="st0" d="M1429.55,332.16c-0.37-0.85-1.16-0.67-1.83-0.7c-10.88-0.52-21.7-1.59-32.41-3.57
		c-12.62-2.33-25.02-5.52-36.02-12.4c-16.96-10.61-27.27-25.86-30.69-45.64c-1.36-7.85-1.54-15.74-0.8-23.68
		c0.15-1.6,0.68-1.9,2.22-1.71c14.79,1.77,29.59,3.47,44.39,5.14c11.51,1.3,23.03,2.6,34.56,3.78c2.71,0.28,4.41,0.98,5.25,4
		c3.06,10.97,11.34,16.2,21.8,18.45c8.19,1.76,16.46,1.65,24.63-0.42c11.03-2.79,18.16-9.67,21.49-20.53
		c1.71-5.58,2.66-11.31,2.75-17.1c0.2-12.89,0.12-25.79,0.14-38.68c0-0.42,0.17-0.95-0.42-1.24c-0.94,0.08-1.26,0.94-1.76,1.53
		c-14.33,16.95-32.66,26.71-54.54,29.56c-21.58,2.82-42.07-0.63-60.44-12.86c-17.56-11.68-29.95-27.69-37.68-47.26
		c-4.46-11.29-6.81-23.07-8.04-35.13c-1.11-10.98-1.18-21.99-0.48-32.96c1.19-18.58,4.95-36.58,14.53-52.85
		c13.1-22.23,32.44-35.87,57.76-40.99c3.6-0.73,7.22-1.28,10.88-1.52c0.7-0.05,1.43-0.01,1.97-0.6c4.26,0,8.53,0,12.79,0
		c4.47,0.47,8.95,0.83,13.4,1.42c11.52,1.54,22.34,5.06,32.1,11.54c9.07,6.03,16.56,13.71,23.24,22.23c0.77,0.98,1.35,2.16,3,3.12
		c0-1.53,0-2.66,0-3.78c0-8.64-0.01-17.27,0.01-25.91c0.01-3.12,0.04-3.12,3.11-3.17c0.59-0.01,1.18,0,1.78,0
		c24.15,0,48.3-0.01,72.46,0.01c5.43,0,4.88-0.61,4.89,4.97c0.06,73.82,0.11,147.64,0.15,221.46c0,9.4-1.32,18.63-4.18,27.59
		c-9.99,31.25-30.08,52.21-62.27,60.81c-14.35,3.83-28.97,5.76-43.78,6.45c-1.37,0.06-2.85-0.37-4.1,0.6
		C1449.44,332.16,1439.49,332.16,1429.55,332.16z M1408.85,120.13c-0.23,8.03,0.46,16.13,2.93,23.99
		c7.26,23.05,33.32,33.1,53.99,20.75c9.57-5.71,15.09-14.44,17.73-25.09c2.71-10.93,2.88-22.01,1.26-33.09
		c-1.34-9.14-4.49-17.6-10.65-24.73c-10.69-12.38-25.49-16.15-40.12-11.6c-11.94,3.71-18.85,12.54-22.16,24.34
		C1409.51,102.96,1408.71,111.4,1408.85,120.13z"/>
	<path class="st0" d="M360.78,332.16c-0.27-0.69-0.89-0.67-1.47-0.7c-14.06-0.86-28.03-2.56-42-4.27c-2.79-0.34-2.93-0.36-3.25-3.13
		c-0.8-6.81-1.52-13.63-2.28-20.44c-1.29-11.63-2.57-23.26-3.88-34.89c-0.34-2.99-0.35-3.04,2.69-2.18
		c12.73,3.61,25.75,5,38.93,5.13c4.75,0.05,9.43-0.56,14.04-1.79c7.49-2.01,13.51-6.13,18.13-12.34c3.84-5.17,6.54-10.94,8.94-16.89
		c0.56-1.39,0.18-2.49-0.33-3.7c-4.22-10.03-8.42-20.06-12.63-30.09c-18.91-45.02-37.83-90.05-56.75-135.07
		c-8.15-19.4-16.31-38.81-24.45-58.22c-0.36-0.86-0.91-1.66-0.88-2.63c0.41-0.85,1.19-0.67,1.84-0.67c29.25-0.01,58.5-0.02,87.75,0
		c2.57,0,2.58,0.06,3.47,2.95c11.8,38.04,23.6,76.09,35.4,114.13c3.12,10.05,6.2,20.1,9.35,30.14c0.41,1.32,0.57,2.79,1.8,4.14
		c2-6.92,3.94-13.59,5.86-20.27c12.28-42.71,24.55-85.41,36.83-128.12c0.85-2.94,0.87-2.97,3.78-2.98
		c26.64-0.01,53.29-0.01,79.93-0.01c0.36,0,0.71-0.01,1.07,0c2.15,0.12,2.33,0.31,1.66,2.26c-0.89,2.57-1.87,5.11-2.82,7.66
		c-17.68,47.66-35.36,95.33-53.06,142.98c-12.27,33.03-24.5,66.07-36.91,99.04c-4.42,11.75-9.91,23-16.43,33.77
		c-9.79,16.15-24.09,26.03-42.03,31.07c-9.14,2.57-18.47,4.05-27.96,4.51c-1.02,0.05-2.16-0.27-3.03,0.6
		C375,332.16,367.89,332.16,360.78,332.16z"/>
	<path class="st0" d="M1672.58,332.16c-1.16-0.84-2.52-0.51-3.78-0.57c-12.3-0.58-24.52-1.93-36.73-3.45
		c-3.05-0.38-6.11-0.73-9.17-1.02c-1.41-0.13-2.05-0.73-2.2-2.19c-0.9-8.46-1.88-16.91-2.84-25.37c-1.09-9.63-2.21-19.25-3.29-28.88
		c-0.17-1.5-0.59-3.01,0.07-4.7c3.37,0.81,6.68,1.64,10.01,2.39c10.79,2.44,21.74,3.29,32.77,3.3c3.79,0,7.56-0.5,11.25-1.38
		c8.39-2.01,15.15-6.47,20.15-13.56c3.16-4.48,5.5-9.37,7.68-14.36c0.97-2.22,0.94-4.16-0.03-6.4
		c-4.68-10.86-9.23-21.77-13.81-32.67c-26.47-63.01-52.93-126.02-79.38-189.03c-0.45-1.06-1.19-2.06-1.03-3.41
		c0.68-0.86,1.7-0.56,2.57-0.56c28.89-0.02,57.79-0.02,86.68-0.01c2.78,0,2.81,0.04,3.75,3.08c8.79,28.33,17.57,56.67,26.35,85.01
		c6.26,20.21,12.49,40.42,18.75,60.63c0.21,0.67,0.52,1.31,0.79,1.98c1.52-0.35,1.28-1.72,1.54-2.59
		c6.99-24.18,13.92-48.38,20.86-72.57c6.94-24.2,13.87-48.39,20.82-72.59c0.83-2.91,0.86-2.94,3.83-2.94
		c26.52-0.01,53.05-0.01,79.57-0.01c0.36,0,0.71-0.01,1.07,0.01c2.15,0.12,2.44,0.47,1.85,2.61c-0.41,1.48-1,2.91-1.53,4.35
		c-16.83,45.33-33.65,90.66-50.48,135.98c-13.13,35.35-26.24,70.71-39.43,106.04c-4.39,11.76-9.75,23.06-15.9,34.03
		c-11.01,19.62-28.06,30.52-49.56,35.27c-7.75,1.71-15.59,2.82-23.54,3.07c-0.92,0.03-1.91-0.17-2.71,0.55
		C1682.52,332.16,1677.55,332.16,1672.58,332.16z"/>
	<path class="st0" d="M832.58,89.5c0.03,48.75,0.04,97.5,0.04,146.26c0,3.31-0.03,3.34-3.27,3.34c-27.24,0.01-54.47,0-81.71,0.01
		c-3.56,0-3.18-0.08-3.18-3.79c0-39.4-0.02-78.81,0.01-118.21c0.01-7.35-0.28-14.63-1.96-21.84c-3.1-13.29-12.8-21.03-26.8-21.49
		c-17.34-0.56-29.75,9.01-34.37,26.32c-1.72,6.42-2.68,12.99-2.84,19.61c-0.23,9.7-0.19,19.4-0.2,29.11
		c-0.02,28.52-0.01,57.04-0.01,85.55c0,0.95-0.04,1.89,0,2.84c0.06,1.34-0.53,1.97-1.89,1.9c-0.71-0.04-1.42,0-2.13,0
		c-26.64,0-53.29,0-79.93,0c-0.71,0-1.42-0.04-2.13,0c-1.4,0.07-1.89-0.65-1.83-1.95c0.04-0.83,0-1.66,0-2.48
		c0-73.25,0-146.49,0.01-219.74c0-5-0.64-4.66,4.47-4.66c24.28-0.01,48.55,0,72.83,0c0.36,0,0.71,0,1.07,0
		c3.31,0.04,3.34,0.04,3.35,3.27c0.02,9.7,0.01,19.41,0.01,29.11c0,1.16,0,2.33,0,3.8c1.73-0.48,2.36-1.84,3.2-2.82
		c6.56-7.67,13.62-14.8,21.67-20.92c12.15-9.24,25.84-14.63,40.95-16.63c2.89-0.38,5.91-0.12,8.69-1.26c5.21,0,10.42,0,15.63,0
		c2.67,1.09,5.56,0.85,8.33,1.3c27.93,4.5,47.09,19.52,56.33,46.56c2.65,7.75,3.82,15.82,5.01,23.88
		C832.05,77.76,832.62,80.77,832.58,89.5z"/>
	<path class="st0" d="M165.55,5.5c18.51,1.24,36.69,4.05,53.81,11.62c19.51,8.63,34.2,22.59,44.83,40.94
		c4.22,7.29,7.56,14.98,10.11,23.01c0.77,2.43,0.76,2.57-1.74,2.93c-6.08,0.88-12.19,1.64-18.28,2.45
		c-11.6,1.54-23.21,3.07-34.81,4.62c-7.85,1.05-15.7,2.15-23.56,3.15c-3.22,0.41-3.25,0.33-4.25-2.64
		c-5.18-15.37-15.96-23.77-31.94-25.87c-6.64-0.87-13.25-0.95-19.76,0.57c-17.21,4.01-28.1,14.99-33.51,31.48
		c-4.1,12.52-4.88,25.47-3.85,38.56c0.52,6.64,1.57,13.17,3.97,19.38c6.08,15.74,17.11,26.03,33.93,29.01
		c14.17,2.52,27.62,0.35,39.25-8.89c7.46-5.93,11.96-13.92,15.31-22.66c0.17-0.44,0.36-0.89,0.44-1.35
		c0.37-1.98,1.59-2.21,3.38-1.99c13.38,1.61,26.77,3.16,40.17,4.69c13.16,1.5,26.32,2.96,39.48,4.45c0.22,0.03,0.44,0.16,0.64,0.24
		c0.42,0.41,0.24,0.86,0.12,1.31c-5.62,20.37-15.3,38.41-30.87,52.95c-14.98,13.99-32.76,22.69-52.72,27.05
		c-12.18,2.66-24.54,3.71-37,3.82c-14.93,0.13-29.82-0.34-44.62-2.42c-20.59-2.89-39.95-9.08-56.59-21.95
		c-19.3-14.92-32.97-33.8-38.83-57.76c-3.48-14.24-3.99-28.76-3.57-43.35c0.39-13.67,2.29-27.08,6.79-40.04
		c5.55-15.99,14.89-29.49,27.23-40.97c8.09-7.52,16.87-14.12,26.76-19.17c11.29-5.76,23.36-8.98,35.8-11.01
		c6.66-1.09,13.36-1.79,20.09-2.2c3.62-0.25,7.31,0.45,10.88-0.67c3.79,0,7.58,0,11.37,0C157.8,5.89,161.7,5.25,165.55,5.5z"/>
	<path class="st1" d="M165.55,5.5C161.7,5.25,157.8,5.89,154,4.81c4.03,0,8.05,0,12.08,0C165.9,5.04,165.72,5.27,165.55,5.5z"/>
	<path class="st1" d="M142.63,4.81c-3.57,1.11-7.26,0.41-10.88,0.67c-0.16-0.22-0.32-0.45-0.49-0.67
		C135.05,4.81,138.84,4.81,142.63,4.81z"/>
	<path class="st0" d="M1315.2,15.95c-8.96-4.39-18.19-7.96-28.04-9.83c-2.04-0.39-4.26-0.09-6.13-1.3c-4.03,0-8.05,0-12.08,0
		c-0.76,0.75-1.76,0.57-2.68,0.69c-13.17,1.72-23.98,7.61-32.3,18.04c-4.9,6.13-8.92,12.8-12.59,19.71
		c-0.52,0.98-0.85,2.13-2.18,3.28c0-1.54,0-2.56,0-3.57c0-9.7,0.01-19.41,0-29.11c0-3.54-0.02-3.57-3.42-3.57
		c-25.11-0.01-50.21-0.01-75.32,0c-3.48,0-3.48,0.03-3.51,3.51c-0.01,0.71,0,1.42,0,2.13c0,26.63-0.05,53.25,0.06,79.88
		c0,0.74-0.06,1.44-0.16,2.1c1.05,5.21,1.41,12.33,0.09,21.81c0,0.68,0,1.32,0,1.96c0,37.87,0,75.74,0,113.61
		c0,4.1-0.24,3.83,3.86,3.83c0.24,0,0.47,0,0.71,0c26.29,0,52.58,0.01,78.87-0.01c5.27,0,4.72,0.64,4.75-4.73
		c0.16-29.11-0.39-58.22,0.44-87.32c0.33-11.48,1.39-22.9,3.69-34.16c1.73-8.49,4.09-16.8,8.74-24.23
		c7.48-11.98,18.31-16.93,32.29-15.09c6.15,0.81,11.96,2.83,17.65,5.18c1.78,0.74,2.45,0.3,3.17-1.34
		c8.41-19.43,16.85-38.84,25.37-58.22C1317.23,17.4,1316.76,16.71,1315.2,15.95z"/>
	<g>
		<g>
			<path class="st2" d="M813.75,107.05c-0.05-1.15,0.62-1.95,1.24-2.83c6.37-9.05,13.39-17.55,20.85-25.71
				c0.31-0.34,0.54-0.77,0.8-1.16c1.29-0.67,2.14-1.85,3.11-2.86c7.1-7.3,14.69-14.05,22.73-20.28
				c23.24-18.02,49.03-31.06,77.25-39.29c17.28-5.04,34.83-8.62,52.93-8.81c1.28-0.01,2.62,0.14,3.83-0.49c7.34,0,14.69,0,22.03,0
				c2.76,0.9,5.63,0.5,8.45,0.67c18.47,1.07,35.51,6.58,50.98,16.69c8.7,5.68,15.47,13.15,19.66,22.79c1.2,2.75,2.03,5.54,2,8.56
				c-0.01,1.3-0.07,2.61,0.05,3.9c1.19,12.77-4.42,23.09-12.35,32.18c-14.72,16.86-32.97,28.99-53.38,37.98
				c-15.89,7-32.49,11.56-49.67,14.07c-2.45,0.36-4.93,0.67-7.4,0.78c-9.1,0.4-18.21,1.2-27.32,0.64
				c-4.71-0.29-9.47-0.18-14.12-1.25c-0.43-0.1-0.96-0.04-1.18-0.85c2.19-1.37,4.79-1.45,7.23-1.92
				c13.46-2.59,26.96-4.96,40.21-8.57c13.65-3.72,26.86-8.5,38.63-16.56c9.47-6.48,17.65-14.29,23.74-24.11
				c3.21-5.17,5.54-10.64,5.89-16.88c0.41-7.36-2.34-13.39-7.15-18.66c-5.7-6.25-12.79-10.49-20.49-13.73
				c-11.23-4.74-22.98-7.18-35.19-7.41c-8.53-0.16-17.06-0.2-25.57,0.22c-16.84,0.84-33.33,3.76-49.47,8.65
				c-25.34,7.67-48.27,19.91-68.91,36.44c-2.18,1.75-4.77,3.13-6.16,5.76c-1.31,0.34-2.32,1.24-3.22,2.11
				c-5.03,4.81-10.18,9.5-14.63,14.88c-1.57,1.9-3.18,3.8-5.22,5.25L813.75,107.05z"/>
			<path class="st2" d="M1151.15,80.2c-0.34,2.19-6.4,16.34-12.38,24.38c-9.85,13.23-21.87,24.58-34.55,35.15
				c-19.36,16.13-40.72,28.83-64.46,37.41c-15.98,5.78-32.43,9.5-49.36,11.12c-11.81,1.13-23.58,2.01-35.37-0.14
				c-8.32-1.52-16.39-3.79-23.75-8.04c-15.83-9.14-21.14-22.08-18.07-39.19c3.59-20.03,14.18-36.13,29.66-49.1
				c12.04-10.09,25.94-16.87,40.58-22.24c13.13-4.82,26.7-8.09,40.28-11.31c1.01-0.24,2.14-0.21,2.93-1.32
				c-5.51-1.28-11.05-1.82-16.56-2.12c-20.25-1.11-40.22,0.65-59.59,7.02c-30.56,10.04-55,28.25-72.39,55.38
				c-11.36,17.73-16.27,37.18-13.09,58.24c2.49,16.52,10.06,30.49,22.58,41.54c15.27,13.49,33.48,19.62,53.67,20.23
				c17.85,0.54,35.42-1.74,52.77-5.83c41.21-9.72,76.29-30.29,106.05-60.13c15.2-15.24,28.97-31.77,39.42-50.57
				C1145.38,110.11,1151.21,89.16,1151.15,80.2z"/>
		</g>
	</g>
</g>
</svg>
