<svg xmlns="http://www.w3.org/2000/svg" width="40.088" height="36.418" viewBox="0 0 40.088 36.418">
  <g id="page-quality-svgrepo-com" transform="translate(0 -17.951)">
    <g id="Group_55832" data-name="Group 55832" transform="translate(0 17.951)">
      <g id="Group_55831" data-name="Group 55831" transform="translate(0 0)">
        <path id="Path_87162" data-name="Path 87162" d="M37.679,17.951H2.409A2.412,2.412,0,0,0,0,20.36v31.6a2.412,2.412,0,0,0,2.409,2.409h35.27a2.411,2.411,0,0,0,2.409-2.409V20.36A2.412,2.412,0,0,0,37.679,17.951ZM30.415,22a.889.889,0,0,1,.889-.889h.89a.889.889,0,0,1,.889.889V23a.889.889,0,0,1-.889.889H31.3A.889.889,0,0,1,30.415,23Zm-4.136,0a.89.89,0,0,1,.89-.889h.889a.89.89,0,0,1,.89.889V23a.89.89,0,0,1-.89.889h-.889a.89.89,0,0,1-.89-.889ZM37.2,51.478H2.891V26.566H37.2V51.478ZM37.22,23a.889.889,0,0,1-.889.889h-.89A.889.889,0,0,1,34.552,23V22a.889.889,0,0,1,.889-.889h.89A.889.889,0,0,1,37.22,22Z" transform="translate(0 -17.951)" fill="#1e52d0"/>
        <path id="Path_87163" data-name="Path 87163" d="M103.038,138.382l-1.016,5.926a.779.779,0,0,0,1.13.821l5.322-2.8,5.322,2.8a.779.779,0,0,0,1.13-.821l-1.016-5.926,4.305-4.2a.78.78,0,0,0-.431-1.33l-5.95-.864-2.661-5.391a.779.779,0,0,0-1.4,0l-2.661,5.391-5.95.864a.78.78,0,0,0-.432,1.33Z" transform="translate(-88.43 -115.106)" fill="#ffad0a"/>
      </g>
    </g>
  </g>
</svg>
