<svg xmlns="http://www.w3.org/2000/svg" width="31.183" height="21.57" viewBox="0 0 31.183 21.57">
  <path id="Path_87155" data-name="Path 87155" d="M267.2,581.167l-6.4-.117a33.392,33.392,0,0,1-6.179-.382c-3.089-.631-3.308-3.726-3.537-6.321a44.342,44.342,0,0,1,.4-10.983,3.755,3.755,0,0,1,3.705-3.374,204.746,204.746,0,0,1,20.75-.2,14.974,14.974,0,0,1,2.178.26c3.542.621,3.629,4.128,3.858,7.08a40.132,40.132,0,0,1-.305,8.942c-.351,2.453-1.023,4.509-3.858,4.708-3.553.26-7.024.469-10.586.4C267.236,581.167,267.215,581.167,267.2,581.167Zm-3.761-6.209c2.677-1.537,5.3-3.049,7.965-4.575-2.682-1.537-5.3-3.049-7.965-4.575Z" transform="translate(-250.923 -559.625)" fill="red"/>
</svg>
