<?xml version="1.0" encoding="utf-8"?>
<!-- Generator: Adobe Illustrator 27.0.1, SVG Export Plug-In . SVG Version: 6.00 Build 0)  -->
<svg version="1.1" id="Layer_1" xmlns="http://www.w3.org/2000/svg" xmlns:xlink="http://www.w3.org/1999/xlink" x="0px" y="0px"
	 viewBox="0 0 40.9 38.9" style="enable-background:new 0 0 40.9 38.9;" xml:space="preserve">
<style type="text/css">
	.st0{fill:#FFAD0A;}
	.st1{fill:#0050D8;}
</style>
<path class="st0" d="M26.6,30.7c3.6,2.7,8.6,2.7,12.3,0v6.6c0,0.8-0.7,1.5-1.5,1.5c-0.2,0-0.5-0.1-0.7-0.2l-0.2-0.1L32.7,36L29,38.6
	c-0.7,0.5-1.7,0.3-2.1-0.4c-0.1-0.2-0.2-0.4-0.3-0.7l0-0.2L26.6,30.7z"/>
<path class="st1" d="M35.3,0c3,0,5.4,2.3,5.6,5.3l0,0.3v10.7c-0.8-1.1-1.9-2-3.1-2.7v-8c0-1.3-1-2.4-2.3-2.5l-0.3,0H5.6
	c-1.3,0-2.4,1-2.5,2.3l0,0.3v19.4c0,1.3,1,2.4,2.3,2.5l0.3,0h18.2c0.2,0.4,0.4,0.7,0.7,1v2.1H5.6c-3,0-5.4-2.3-5.6-5.3l0-0.3V5.6
	c0-3,2.3-5.4,5.3-5.6l0.3,0H35.3z"/>
<path class="st0" d="M32.7,14.3c4.5,0,8.2,3.7,8.2,8.2s-3.7,8.2-8.2,8.2s-8.2-3.7-8.2-8.2c0,0,0,0,0,0C24.5,18,28.2,14.3,32.7,14.3z
	"/>
<path class="st1" d="M18.9,19.4c0.8,0,1.5,0.7,1.5,1.5c0,0.8-0.6,1.4-1.3,1.5l-0.2,0H9.7c-0.8,0-1.5-0.7-1.5-1.5
	c0-0.8,0.6-1.4,1.3-1.5l0.2,0H18.9z"/>
<path class="st1" d="M21.2,13.8c1,0,1.9,0.7,1.9,1.5c0,0.8-0.7,1.4-1.6,1.5l-0.3,0H10c-1,0-1.9-0.7-1.9-1.5c0-0.8,0.7-1.4,1.6-1.5
	l0.3,0H21.2z"/>
<path class="st1" d="M31.2,8.2c0.8,0,1.5,0.7,1.5,1.5c0,0.8-0.6,1.4-1.3,1.5l-0.2,0H9.7c-0.8,0-1.5-0.7-1.5-1.5
	c0-0.8,0.6-1.4,1.3-1.5l0.2,0L31.2,8.2z"/>
</svg>
